<svg width="28" height="41" viewBox="0 0 28 41" fill="none" xmlns="http://www.w3.org/2000/svg">
<path d="M14 19.475C12.6739 19.475 11.4021 18.935 10.4645 17.9739C9.52678 17.0128 9 15.7092 9 14.35C9 12.9908 9.52678 11.6872 10.4645 10.7261C11.4021 9.76495 12.6739 9.225 14 9.225C15.3261 9.225 16.5979 9.76495 17.5355 10.7261C18.4732 11.6872 19 12.9908 19 14.35C19 15.023 18.8707 15.6895 18.6194 16.3113C18.3681 16.933 17.9998 17.498 17.5355 17.9739C17.0712 18.4498 16.52 18.8273 15.9134 19.0849C15.3068 19.3424 14.6566 19.475 14 19.475ZM14 0C10.287 0 6.72601 1.51187 4.1005 4.20302C1.475 6.89416 0 10.5441 0 14.35C0 25.1125 14 41 14 41C14 41 28 25.1125 28 14.35C28 10.5441 26.525 6.89416 23.8995 4.20302C21.274 1.51187 17.713 0 14 0Z" fill="#0184FE"/>
</svg>
