<svg width="130" height="46" viewBox="0 0 130 46" fill="none" xmlns="http://www.w3.org/2000/svg">
<g id="Layer_1" clip-path="url(#clip0_40_601)">
<path id="Vector" d="M37.6727 6.14355H6.70635L8.93715 0H39.9035L37.6727 6.14355ZM36.5573 9.20836H5.57701L3.3462 15.338H34.3125L36.5573 9.20836ZM33.2111 18.3749H2.2308L0 24.5185H30.9384L33.2111 18.3749Z" fill="#00AAFF"/>
<path id="Vector_2" d="M111.456 39.8425H117.033C117.826 39.9371 118.63 39.8354 119.374 39.5462C120.118 39.2571 120.779 38.7896 121.3 38.1848C122.066 37.1796 122.451 35.936 122.387 34.6742C122.441 33.8739 122.294 33.0729 121.961 32.3433C121.628 31.6137 121.118 30.9785 120.477 30.4949C119.442 29.8181 118.211 29.5044 116.978 29.6033H111.456V39.8425ZM104.137 46.014V9.20839H128.09L125.998 15.3798H111.456V23.5294H117.382C122.15 23.5294 124.646 24.6857 126.361 26.1484C127.588 27.2326 128.553 28.5806 129.183 30.0911C129.813 31.6017 130.093 33.2353 130 34.8692C130.101 36.6208 129.765 38.3702 129.023 39.9603C128.281 41.5504 127.155 42.9316 125.747 43.98C123.447 45.5682 121.021 46.014 116.127 46.014H104.137ZM82.9161 46.014V15.3659H72.264V9.20839H101.836L99.7307 15.3798H90.3056V46.0279L82.9161 46.014ZM53.3998 23.9473H57.5825C58.438 24.009 59.2979 23.9432 60.134 23.7523C61.0069 23.479 61.7597 22.9152 62.2671 22.1548C62.7745 21.3943 63.0058 20.4832 62.9225 19.573C63.038 18.6713 62.8178 17.7585 62.3036 17.0085C61.7895 16.2584 61.0173 15.7234 60.134 15.5052C59.2221 15.2834 58.2829 15.1943 57.3455 15.2405H53.3998V23.9473ZM53.3998 30.3138V40.0654H58.5027C59.9093 40.229 61.3244 39.8393 62.4485 38.9788C62.9375 38.4887 63.3152 37.899 63.5558 37.2499C63.7964 36.6009 63.8942 35.9077 63.8427 35.2175C63.9313 34.064 63.6373 32.9135 63.0062 31.9437C61.9187 30.5506 60.5802 30.2859 58.2797 30.2859L53.3998 30.3138ZM65.1951 26.427V26.5524C66.4322 27.0342 67.5887 27.7013 68.625 28.5306C69.675 29.3987 70.5052 30.5021 71.0479 31.7512C71.5906 33.0003 71.8305 34.3598 71.7481 35.719C71.7481 40.762 69.0712 44.384 64.6793 45.4707C62.9294 45.9029 61.1256 46.0766 59.3253 45.9861H46.08V9.20839H57.8614C59.7349 9.13569 61.61 9.30898 63.4384 9.72384C67.7048 10.8662 70.5072 13.7917 70.5072 18.4446C70.5418 19.5485 70.3507 20.6479 69.9455 21.6754C69.5404 22.703 68.9298 23.6372 68.151 24.421C67.3276 25.2626 66.3471 25.9347 65.2649 26.3992L65.1951 26.427Z" fill="#002882"/>
</g>
<defs>
<clipPath id="clip0_40_601">
<rect width="130" height="46" fill="white"/>
</clipPath>
</defs>
</svg>
