<svg width="20" height="24" viewBox="0 0 20 24" fill="none" xmlns="http://www.w3.org/2000/svg">
<g id="Group 8754">
<path id="Union" fill-rule="evenodd" clip-rule="evenodd" d="M10.1606 0C7.00311 0 4.44348 2.60321 4.44348 5.81442V6.52134C4.44348 9.34214 6.6919 11.6288 9.46548 11.6288H10.8556C13.6292 11.6288 15.8776 9.34214 15.8776 6.52134V5.81442C15.8776 2.60321 13.318 0 10.1606 0Z" fill="#D9D9D9"/>
<path id="Union_2" fill-rule="evenodd" clip-rule="evenodd" d="M15.3425 13.9253C15.1634 13.9248 14.9113 13.9445 14.5215 13.9749L14.4632 13.9795C13.0211 14.0919 11.375 14.1856 9.8996 14.1856C8.48601 14.1856 6.89533 14.0996 5.47225 13.9934L5.41156 13.9889L5.41155 13.9889C5.00748 13.9587 4.74672 13.9392 4.56379 13.9406C2.36532 13.9577 0.594233 15.457 0.178708 17.6527C0.144144 17.8353 0.118452 18.0738 0.0792847 18.4373L0.079284 18.4373L0.0736357 18.4897L0.0684467 18.5378C0.0304419 18.8899 0.00511182 19.1246 0.000977076 19.3281C-0.0479287 21.735 1.74475 23.7691 4.1026 23.982C4.30193 24 4.53405 24 4.88232 24H4.88238L4.92996 24L15.076 24C15.4583 24 15.7124 24 15.9263 23.9793C18.3907 23.7403 20.2026 21.522 19.9818 19.0143C19.9626 18.7967 19.916 18.5427 19.8459 18.1605L19.8271 18.0581C19.7638 17.7127 19.7221 17.4856 19.6755 17.3098C19.1328 15.2651 17.425 13.9311 15.3425 13.9253Z" fill="#D9D9D9"/>
</g>
</svg>
