<svg width="18" height="18" viewBox="0 0 18 18" fill="none" xmlns="http://www.w3.org/2000/svg">
<path id="Vector" d="M0.253662 17.2092H6.62866V10.8506H0.253662V17.2092ZM17.2537 17.2092V10.8506H10.8787V17.2092H17.2537ZM10.8787 5.5517H13.0037V7.67125H10.8787V9.7908H13.0037V7.67125H15.1287V9.7908H17.2537V7.67125H15.1287V5.5517H17.2537V2.37237H15.1287V0.252817H13.0037V2.37237H9.81616V0.252817H7.69116V4.49192H10.8787V5.5517ZM13.0037 5.5517V2.37237H15.1287V5.5517H13.0037ZM0.253662 0.252817V6.61147H6.62866V0.252817H0.253662ZM2.37866 15.0897V12.9701H4.50366V15.0897H2.37866ZM13.0037 15.0897V12.9701H15.1287V15.0897H13.0037ZM2.37866 4.49192V2.37237H4.50366V4.49192H2.37866ZM0.253662 9.7908H2.37866V7.67125H0.253662V9.7908ZM5.56616 9.7908H9.81616V5.5517H7.69116V7.67125H5.56616V9.7908ZM7.69116 15.0897H9.81616V10.8506H7.69116V15.0897Z" fill="#5786CE"/>
</svg>
