<svg width="13" height="12" viewBox="0 0 13 12" fill="none" xmlns="http://www.w3.org/2000/svg">
<path id="Vector" d="M8.46596 5.55L7.92692 6.102C7.49568 6.534 7.22616 6.9 7.22616 7.8H6.02828V7.5C6.02828 6.834 6.2978 6.234 6.72904 5.802L7.47172 5.046C7.69333 4.83 7.8251 4.53 7.8251 4.2C7.8251 3.88174 7.69889 3.57652 7.47425 3.35147C7.2496 3.12643 6.94491 3 6.62722 3C6.30952 3 6.00483 3.12643 5.78019 3.35147C5.55554 3.57652 5.42934 3.88174 5.42934 4.2H4.23146C4.23146 3.56348 4.48387 2.95303 4.93316 2.50294C5.38245 2.05286 5.99182 1.8 6.62722 1.8C7.26261 1.8 7.87198 2.05286 8.32128 2.50294C8.77057 2.95303 9.02298 3.56348 9.02298 4.2C9.02211 4.70594 8.82194 5.1911 8.46596 5.55ZM7.22616 10.2H6.02828V9H7.22616M6.62722 0C5.84068 0 5.06184 0.155195 4.33517 0.456723C3.60851 0.758251 2.94824 1.20021 2.39207 1.75736C1.26884 2.88258 0.637817 4.4087 0.637817 6C0.637817 7.5913 1.26884 9.11742 2.39207 10.2426C2.94824 10.7998 3.60851 11.2417 4.33517 11.5433C5.06184 11.8448 5.84068 12 6.62722 12C8.2157 12 9.73913 11.3679 10.8624 10.2426C11.9856 9.11742 12.6166 7.5913 12.6166 6C12.6166 2.682 9.92139 0 6.62722 0Z" fill="#5786CE"/>
</svg>
